<svg width="191" height="45" viewBox="0 0 191 45" fill="none" xmlns="http://www.w3.org/2000/svg">
<path d="M57.4826 18.6963H57.285C56.676 17.1856 55.6772 15.864 54.3908 14.8667C53.0438 13.7914 51.2868 13.2537 49.1198 13.2537C47.2342 13.2119 45.3802 13.7436 43.8025 14.7787C42.2619 15.8226 41.0377 17.271 40.2641 18.9651C39.4231 20.7394 39.0025 22.776 39.0025 25.0748C38.9629 27.1839 39.3879 29.2758 40.2471 31.2017C41.0069 32.9014 42.2267 34.3542 43.7684 35.3954C45.3528 36.4247 47.2098 36.9526 49.0979 36.9106C51.2648 36.9106 53.0194 36.3681 54.3615 35.283C55.6468 34.2765 56.6546 32.9585 57.2898 31.4534H57.5339V36.4365H59.4861V5.98315H57.4899L57.4826 18.6963ZM56.5187 30.2803C55.9317 31.7261 54.955 32.98 53.6978 33.9022C52.4055 34.805 50.8584 35.2692 49.2833 35.2268C47.6904 35.2705 46.126 34.7983 44.8226 33.8802C43.559 32.951 42.5768 31.6899 41.9845 30.2363C40.6764 26.9167 40.6764 23.2233 41.9845 19.9036C42.5763 18.4557 43.559 17.2016 44.8226 16.2817C46.0589 15.3954 47.5459 14.9522 49.2833 14.9522C50.857 14.909 52.4034 15.3696 53.6978 16.2671C54.9533 17.1818 55.93 18.4282 56.5187 19.8669C57.1954 21.5137 57.5276 23.2821 57.4948 25.0626C57.5257 26.8501 57.1936 28.6253 56.5187 30.2803V30.2803Z" fill="black"/>
<path d="M80.2603 14.0209C78.9127 13.5027 77.4798 13.2424 76.0363 13.2535C74.157 13.2371 72.2986 13.6491 70.6018 14.4584C68.9973 15.1987 67.7199 16.5031 67.0122 18.1242L68.9107 18.7645C69.4548 17.5805 70.3699 16.6066 71.5169 15.9907C72.7582 15.2722 74.2817 14.9129 76.0875 14.9129C78.1324 14.9129 79.7373 15.4017 80.9021 16.3793C82.067 17.3568 82.6502 18.6782 82.6518 20.3433V27.1519C82.677 28.6044 82.3183 30.0377 81.6123 31.3066C80.9333 32.5103 79.9383 33.5051 78.7352 34.183C77.4461 34.8977 75.9916 35.2593 74.5184 35.2315C72.75 35.2315 71.2712 34.7801 70.082 33.8775C69.5072 33.455 69.0444 32.898 68.7339 32.2552C68.4234 31.6124 68.2747 30.9033 68.3006 30.1897C68.2876 29.5248 68.453 28.8685 68.7797 28.2894C69.1063 27.7104 69.5822 27.2298 70.1577 26.8978C71.1029 26.2917 72.5003 25.8314 74.35 25.517C76.1876 25.2433 76.4731 23.9529 76.5707 23.5961L75.9631 23.6621C72.5874 24.0287 70.1325 24.7252 68.5983 25.7516C67.0642 26.778 66.2972 28.2444 66.2972 30.1506C66.2579 31.4658 66.642 32.7587 67.3929 33.8384C68.1393 34.8612 69.1524 35.6586 70.3212 36.143C71.5898 36.6774 72.9544 36.9452 74.3305 36.93C76.3445 36.93 78.0462 36.4819 79.4355 35.5858C80.7327 34.7906 81.7948 33.6636 82.5127 32.3208H82.6616V36.4412H84.6748V20.4801C84.6748 18.815 84.2681 17.4497 83.4546 16.3842C82.6311 15.3132 81.5246 14.4945 80.2603 14.0209V14.0209Z" fill="black"/>
<path d="M107.779 14.7714C106.266 13.7597 104.487 13.2538 102.442 13.2538C100.252 13.2538 98.4952 13.7939 97.171 14.8741C95.9007 15.8842 94.9053 17.1988 94.2768 18.6963H94.045V13.5959H92.0928V45H94.0718V31.4583H94.2695C94.8805 32.9746 95.8857 34.2994 97.1807 35.2953C98.5375 36.3755 100.294 36.9156 102.452 36.9156C104.332 36.9568 106.181 36.4259 107.754 35.393C109.293 34.3457 110.515 32.895 111.285 31.1993C112.155 29.2823 112.586 27.1948 112.547 25.0896C112.587 22.985 112.158 20.898 111.293 18.9798C110.534 17.2774 109.318 15.8201 107.779 14.7714V14.7714ZM109.567 30.2364C108.973 31.69 107.992 32.9528 106.732 33.8876C105.423 34.7619 103.886 35.2304 102.313 35.2343C100.74 35.2382 99.2012 34.7774 97.8884 33.9096C96.6241 32.9867 95.6407 31.7303 95.0479 30.2804C93.7351 26.9329 93.7351 23.212 95.0479 19.8645C95.6367 18.4258 96.6134 17.1794 97.8689 16.2647C99.0955 15.3865 100.572 14.9482 102.298 14.9498C104.048 14.9498 105.539 15.393 106.768 16.2793C108.027 17.2002 109.004 18.4545 109.589 19.9012C110.893 23.2241 110.885 26.9191 109.567 30.2364V30.2364Z" fill="black"/>
<path d="M134.563 15.4557C132.963 14.0187 130.881 13.3002 128.319 13.3002C126.493 13.3002 124.929 13.6545 123.626 14.3633C122.403 14.9904 121.408 15.9863 120.781 17.2104H120.583V5.98315H118.57V36.4365H120.583V21.6265C120.583 19.6323 121.276 18.0258 122.662 16.8072C124.048 15.5885 125.808 14.9791 127.94 14.9791C130.055 14.9791 131.755 15.5689 133.038 16.7485C134.322 17.9281 134.965 19.4914 134.968 21.4383V36.4267H136.965V21.3724C136.965 18.8649 136.164 16.8927 134.563 15.4557Z" fill="black"/>
<path d="M160.293 15.463C158.693 14.0211 156.617 13.3002 154.066 13.3002C152.263 13.3002 150.707 13.657 149.398 14.3706C148.173 14.9966 147.173 15.9892 146.538 17.2104H146.34V13.5959H144.388V36.4365H146.399V21.6265C146.399 19.6323 147.086 18.0258 148.461 16.8072C149.835 15.5885 151.578 14.9791 153.69 14.9791C155.79 14.9791 157.481 15.5689 158.763 16.7485C160.045 17.9281 160.688 19.4914 160.691 21.4383V36.4267H162.704V21.3723C162.698 18.8747 161.894 16.9049 160.293 15.463Z" fill="black"/>
<path d="M190.038 24.2879C190.038 22.0281 189.555 20.073 188.588 18.4225C187.675 16.8227 186.346 15.5002 184.742 14.5954C183.146 13.6974 181.344 13.2331 179.513 13.2488C177.544 13.2151 175.608 13.7523 173.937 14.7958C172.304 15.8337 170.98 17.2923 170.103 19.0188C169.189 20.9156 168.715 22.9944 168.715 25.1005C168.715 27.2065 169.189 29.2854 170.103 31.1821C170.994 32.9206 172.355 34.3736 174.03 35.3758C175.723 36.3957 177.714 36.9057 180.003 36.9057C181.49 36.9394 182.97 36.6863 184.362 36.1603C185.494 35.7258 186.534 35.0825 187.429 34.2638C188.154 33.6105 188.759 32.8356 189.218 31.9739L187.388 31.3043C187.009 31.9595 186.531 32.5515 185.97 33.059C185.254 33.7134 184.428 34.2348 183.53 34.5987C182.405 35.047 181.201 35.2623 179.991 35.2316C178.076 35.2316 176.429 34.8023 175.05 33.9437C173.681 33.1005 172.577 31.8875 171.865 30.444C171.641 29.9941 171.451 29.5286 171.294 29.051V29.051C171.262 28.9533 171.233 28.858 171.204 28.7602L171.16 28.6062C171.116 28.4572 171.077 28.3081 171.043 28.1614C171.043 28.115 171.021 28.0686 171.009 28.0197C170.676 26.5245 170.593 24.9842 170.765 23.4618V23.4618C170.905 21.987 171.364 20.5602 172.109 19.2803C172.859 17.9816 173.92 16.8899 175.196 16.1033C176.509 15.3366 178.002 14.9327 179.521 14.9327C181.041 14.9327 182.534 15.3366 183.847 16.1033C185.125 16.8764 186.177 17.9719 186.9 19.2803C187.657 20.6491 188.044 22.1926 188.022 23.7576H174.383C174.54 24.2525 174.855 24.6821 175.28 24.9802C175.705 25.2783 176.215 25.4283 176.733 25.4072H190.038V24.2879Z" fill="black"/>
<path d="M20.7886 9.82092V36.9851L8.87817 42V14.838L20.7886 9.82092Z" fill="#212121"/>
<path d="M14.9658 11.0858L7.87247 14.1045V32.7974L0 36.1493V5.96261L14.9658 0V11.0858Z" fill="#212121"/>
</svg>
